<svg id="Capa_1" data-name="Capa 1" xmlns="http://www.w3.org/2000/svg" viewBox="0 0 692.11 290.54"><defs><style>.cls-1{fill:#fff;}</style></defs><title>logo blanco</title><path class="cls-1" d="M547.54,136.13a15.88,15.88,0,0,0,5.5,3.8,19.26,19.26,0,0,0,7.41,1.44,23.47,23.47,0,0,0,7-1.05c.64-.21,1.25-.44,1.87-.71a17.69,17.69,0,0,0,6.68-5.1h.34l1,5.6H592.6c-.19-1.05-.31-2.26-.45-3.71s-.2-3-.26-4.66-.06-3.42-.06-5.22V107.11a33,33,0,0,0-1.18-9.3,20.58,20.58,0,0,0-4-7.67A18.44,18.44,0,0,0,579.29,85,30.5,30.5,0,0,0,567.92,83l-.44,0a50.57,50.57,0,0,0-8.63.78,45.47,45.47,0,0,0-7.11,1.87,31.58,31.58,0,0,0-5,2.25l3.11,11.19A20.56,20.56,0,0,1,554.15,97a29.8,29.8,0,0,1,5.15-1.53,27.88,27.88,0,0,1,5.6-.59,25.14,25.14,0,0,1,2.58.16,10.72,10.72,0,0,1,2.48.55,7.68,7.68,0,0,1,3,1.76,6.29,6.29,0,0,1,1.45,2.34,7.59,7.59,0,0,1,.36,2.37v.82a71.47,71.47,0,0,0-7.32.31,49.83,49.83,0,0,0-5.78.94,31.2,31.2,0,0,0-10.07,3.93,18.71,18.71,0,0,0-6.48,6.68,19.27,19.27,0,0,0-2.26,9.48,17.47,17.47,0,0,0,1.19,6.43A16.29,16.29,0,0,0,547.54,136.13Zm14.13-18.91a12.31,12.31,0,0,1,5.63-2.76l.18,0a33.59,33.59,0,0,1,7.88-.68v6c0,.53,0,1-.05,1.53s-.17,1-.28,1.45a8.74,8.74,0,0,1-1.85,3.23,9,9,0,0,1-3,2.29,9.34,9.34,0,0,1-2.67.78,10.63,10.63,0,0,1-1.25.08,7.76,7.76,0,0,1-3.41-.71,5.65,5.65,0,0,1-2.37-2.2,7.55,7.55,0,0,1-.89-3.7A7.15,7.15,0,0,1,561.67,117.22Z"/><path class="cls-1" d="M424.88,132a20.84,20.84,0,0,0,7.27,5.63,22,22,0,0,0,9.27,2,23,23,0,0,0,4.41-.46,18.44,18.44,0,0,0,4.08-1.44,16.24,16.24,0,0,0,6.21-5.41h.22V136a17.1,17.1,0,0,1-1.86,8.38,11.44,11.44,0,0,1-5,4.79,14.85,14.85,0,0,1-3.62,1.22,17.73,17.73,0,0,1-3.62.33,35.14,35.14,0,0,1-6.16-.62,39.44,39.44,0,0,1-5.42-1.6,30.18,30.18,0,0,1-4.24-2l-3.31,13.12a26,26,0,0,0,5.68,2.41,43.15,43.15,0,0,0,6.72,1.44,50.66,50.66,0,0,0,7.15.5c1.07,0,2.12,0,3.2-.08,1.61-.1,3.19-.28,4.79-.54a32.21,32.21,0,0,0,7.54-2.12,24.49,24.49,0,0,0,6.64-4.12,21.47,21.47,0,0,0,4.86-6.62,31.87,31.87,0,0,0,2.59-8.45,55.82,55.82,0,0,0,.79-10V100.84c0-2.76,0-5.17.07-7.22s.07-3.81.15-5.32.15-2.85.21-4H458.79l-.55,6.64H458a16.45,16.45,0,0,0-3.45-4.08,14.63,14.63,0,0,0-4.88-2.76,17,17,0,0,0-3.84-.88c-.86-.1-1.78-.15-2.74-.17a22.93,22.93,0,0,0-17.35,8,27.77,27.77,0,0,0-5.37,9.25,37.21,37.21,0,0,0-.27,23.19A25.61,25.61,0,0,0,424.88,132Zm12.17-28.64a12.71,12.71,0,0,1,4-5.38,9.32,9.32,0,0,1,4.77-1.82c.26,0,.55,0,.83,0a8.69,8.69,0,0,1,4.18,1,8.53,8.53,0,0,1,3.06,2.65,11.93,11.93,0,0,1,1.88,4,9,9,0,0,1,.25,1.51,15.53,15.53,0,0,1,.09,1.69v8.2c0,.76,0,1.56-.11,2.36a10.26,10.26,0,0,1-.45,2.21,9.39,9.39,0,0,1-1.85,3.66,8.81,8.81,0,0,1-7,3.42,7.49,7.49,0,0,1-.83,0,9.38,9.38,0,0,1-5.22-2,12,12,0,0,1-3.77-5.3,20.78,20.78,0,0,1-1.31-7.55A23.43,23.43,0,0,1,437.05,103.39Z"/><path class="cls-1" d="M483.92,102.08v38h16.91v-32.2a21.58,21.58,0,0,1,.15-2.34,11.46,11.46,0,0,1,.52-2,10.72,10.72,0,0,1,1.66-3.1A9.37,9.37,0,0,1,506,98a8.49,8.49,0,0,1,4-1,7.92,7.92,0,0,1,5,1.54,8.86,8.86,0,0,1,2.74,4.21,21.16,21.16,0,0,1,.86,6.33v31h16.91V107a34.56,34.56,0,0,0-1.48-10.68A20.32,20.32,0,0,0,530,88.85a16.5,16.5,0,0,0-6.17-4.39A20.24,20.24,0,0,0,516.07,83a21.66,21.66,0,0,0-6.1.9,19,19,0,0,0-4.83,2.23A19.68,19.68,0,0,0,501.56,89a17.11,17.11,0,0,0-2.28,2.89h-.34l-.78-7.66H483.47c.12,2.47.22,5.17.31,8.15S483.92,98.62,483.92,102.08Z"/><path class="cls-1" d="M338.32,140.91a82.12,82.12,0,0,0,13.42-1,60.18,60.18,0,0,0,6.42-1.42A38.38,38.38,0,0,0,372.94,131a34.21,34.21,0,0,0,6.47-7.58A39,39,0,0,0,383.78,113a53.54,53.54,0,0,0,1.62-13.21,46.9,46.9,0,0,0-1.57-12.25,32.16,32.16,0,0,0-4.38-9.63,29.29,29.29,0,0,0-6.74-7.12,33.92,33.92,0,0,0-8-4.63,43,43,0,0,0-10-2.7c-1-.15-1.94-.29-3-.4a86.26,86.26,0,0,0-9.74-.48c-4.32,0-8.42.11-12.35.39s-7.43.68-10.57,1.2v75.57c2.09.3,4.73.55,7.9.77S334,140.89,338.32,140.91Zm-2.24-64.28a21.31,21.31,0,0,1,3-.47,43.87,43.87,0,0,1,4.73-.21,30.22,30.22,0,0,1,7.95,1,24,24,0,0,1,4.69,1.79,18.92,18.92,0,0,1,8.1,8.22,28.57,28.57,0,0,1,2.85,13.43c0,6.13-1.08,11.2-3.19,15.19a20.2,20.2,0,0,1-8.79,8.91,22.85,22.85,0,0,1-3.66,1.51,31.78,31.78,0,0,1-9.74,1.34c-1.07,0-2.16,0-3.23,0a13.61,13.61,0,0,1-2.69-.3Z"/><rect class="cls-1" x="393.72" y="84.27" width="16.9" height="55.84"/><path class="cls-1" d="M255.86,133.56a22.09,22.09,0,0,0,7.38,5.76,21.17,21.17,0,0,0,9.1,2.05,21.52,21.52,0,0,0,4.77-.53,19.58,19.58,0,0,0,2-.54,17.91,17.91,0,0,0,5.85-3.16,17.6,17.6,0,0,0,4.42-5.24h.24l.76,8.21h15c-.1-1.27-.18-2.81-.24-4.61s-.1-3.71-.16-5.79-.07-4.16-.07-6.27V58.94H288V89.3h-.23a12.3,12.3,0,0,0-5.59-4.6,18.85,18.85,0,0,0-5.09-1.42,30.5,30.5,0,0,0-3.68-.26,22.66,22.66,0,0,0-9.31,2,23.29,23.29,0,0,0-7.78,5.8,27.8,27.8,0,0,0-5.35,9.31,38.91,38.91,0,0,0-1.92,12.6,36.9,36.9,0,0,0,1.82,11.8A27.91,27.91,0,0,0,255.86,133.56ZM267,106a15.65,15.65,0,0,1,2.23-5,10.67,10.67,0,0,1,3.63-3.42,10.33,10.33,0,0,1,4.29-1.2c.25,0,.51,0,.76,0a9.85,9.85,0,0,1,4.69,1.19,10,10,0,0,1,3.38,3.07,11.78,11.78,0,0,1,1.85,4.31,14.24,14.24,0,0,1,.14,1.53,9.37,9.37,0,0,1,.09,1.54v7.3a15.26,15.26,0,0,1-.09,2.08,14.65,14.65,0,0,1-2.26,6.26,9.48,9.48,0,0,1-3.39,2.94,10.07,10.07,0,0,1-4.49,1.07c-.24,0-.46,0-.68,0a10.19,10.19,0,0,1-5.46-1.86,12.07,12.07,0,0,1-4-5.34,22.39,22.39,0,0,1-1.46-8.18A23.43,23.43,0,0,1,267,106Z"/><path class="cls-1" d="M107.12,136.13a16.29,16.29,0,0,0,5.53,3.8,19.32,19.32,0,0,0,7.42,1.44,23.06,23.06,0,0,0,7-1.05,17.6,17.6,0,0,0,1.89-.71,17.32,17.32,0,0,0,6.68-5.1H136l1,5.6h15.24a31.61,31.61,0,0,1-.44-3.71c-.13-1.43-.2-3-.28-4.66s-.06-3.42-.06-5.22V107.11a33.72,33.72,0,0,0-1.2-9.3,20.42,20.42,0,0,0-4-7.67A18.44,18.44,0,0,0,138.92,85,30.82,30.82,0,0,0,127.52,83l-.46,0a50.3,50.3,0,0,0-8.6.78,47,47,0,0,0-7.13,1.87,31.27,31.27,0,0,0-5,2.25l3.13,11.19A22.84,22.84,0,0,1,113.73,97a31,31,0,0,1,5.21-1.53,27.52,27.52,0,0,1,5.57-.59,23.5,23.5,0,0,1,2.55.16,11.31,11.31,0,0,1,2.53.55,7.73,7.73,0,0,1,3,1.76A6.26,6.26,0,0,1,134,99.71a6.85,6.85,0,0,1,.38,2.37v.82a72.14,72.14,0,0,0-7.36.31,50.72,50.72,0,0,0-5.77.94,31.49,31.49,0,0,0-10.05,3.93,18.83,18.83,0,0,0-6.49,6.68,19.49,19.49,0,0,0-2.28,9.48,17.23,17.23,0,0,0,1.23,6.43A16.56,16.56,0,0,0,107.12,136.13Zm14.15-18.91a12.36,12.36,0,0,1,5.67-2.76l.12,0a33.9,33.9,0,0,1,7.91-.68v6c0,.53,0,1-.06,1.53a14.41,14.41,0,0,1-.27,1.45A8.71,8.71,0,0,1,132.8,126a9.86,9.86,0,0,1-3,2.29,9.48,9.48,0,0,1-2.72.78,9.37,9.37,0,0,1-1.22.08,7.84,7.84,0,0,1-3.42-.71,5.6,5.6,0,0,1-2.35-2.2,7.55,7.55,0,0,1-.91-3.7A7.32,7.32,0,0,1,121.27,117.22Z"/><rect class="cls-1" x="162.12" y="58.94" width="16.87" height="81.17"/><path class="cls-1" d="M195.21,135.67a15.71,15.71,0,0,0,6.07,4.31,20.44,20.44,0,0,0,7.64,1.39,21.72,21.72,0,0,0,6.48-1,18.13,18.13,0,0,0,4.9-2.34,18.67,18.67,0,0,0,3.48-3,18.22,18.22,0,0,0,2.16-2.88h.35l.76,7.88h14.71c-.12-2.34-.26-5-.32-8s-.12-6.28-.12-9.95V84.28h-17v33.23c0,.67,0,1.37-.08,2a6.81,6.81,0,0,1-.46,1.74,10.43,10.43,0,0,1-1.66,2.78,8.77,8.77,0,0,1-2.79,2.33,8.56,8.56,0,0,1-4,.94,7.53,7.53,0,0,1-4.85-1.57,9.11,9.11,0,0,1-2.71-4.46,23.09,23.09,0,0,1-.91-7v-30h-17v32.77a38.47,38.47,0,0,0,1.47,11.08A20.35,20.35,0,0,0,195.21,135.67Z"/><path class="cls-1" d="M74.24,125.93a18.26,18.26,0,0,1-6.58,1,36.67,36.67,0,0,1-7.06-.71,40.83,40.83,0,0,1-6.44-1.79,40.27,40.27,0,0,1-5.3-2.3l-3.45,14.4a30.26,30.26,0,0,0,5.51,2.29,51.53,51.53,0,0,0,7.38,1.79,53.42,53.42,0,0,0,8.38.71,42.63,42.63,0,0,0,13.38-1.94,25.73,25.73,0,0,0,9.45-5.23,21.2,21.2,0,0,0,5.6-7.63,23.35,23.35,0,0,0,1.82-9.18,20.4,20.4,0,0,0-8.51-17.19,43.8,43.8,0,0,0-11-5.76,80,80,0,0,1-7.9-3.4A14.41,14.41,0,0,1,65,87.75a6.59,6.59,0,0,1-.25-7.86,8.26,8.26,0,0,1,3.64-2.68,16.34,16.34,0,0,1,6.08-1,36.24,36.24,0,0,1,6.66.61,37.63,37.63,0,0,1,5.28,1.42c1.48.58,2.75,1.1,3.77,1.61L94,65.9a36.83,36.83,0,0,0-8.08-2.81,49.35,49.35,0,0,0-11.09-1.18,37.82,37.82,0,0,0-11.87,1.77A26.38,26.38,0,0,0,54,68.56a21.51,21.51,0,0,0-5.6,7.36,22.12,22.12,0,0,0-2,9.16A19,19,0,0,0,49,95a23.87,23.87,0,0,0,7.13,7.46A47.77,47.77,0,0,0,67,107.81a47.6,47.6,0,0,1,7.24,3.2,12.12,12.12,0,0,1,4.06,3.44,6.83,6.83,0,0,1,1.26,4.19,7.1,7.1,0,0,1-1.37,4.4A8.59,8.59,0,0,1,74.24,125.93Z"/><path class="cls-1" d="M408.94,74.42a11.05,11.05,0,0,0,1-15.3,10.39,10.39,0,0,0-14.93-1,11,11,0,0,0-1,15.29A10.36,10.36,0,0,0,408.94,74.42Z"/><path class="cls-1" d="M49.15,156.56a40.33,40.33,0,0,0,.28-4.12,24.22,24.22,0,0,0-.15-2.44l-1.92.48a53,53,0,0,0-1,6.31,122.77,122.77,0,0,0-.68,14c.51,1.66,3.14,2.72,7.8,3.25a44.75,44.75,0,0,0,4.7.25,15.74,15.74,0,0,0,1.59-.05c.72-.28,1.06-.66,1.06-1.11a2.43,2.43,0,0,0-.54-1.14c0-.07,0-.14,0-.22-.84,0-1.58,0-2.21-.05a45.45,45.45,0,0,1-4.77-.49,13.43,13.43,0,0,1-4.55-1.41,20.59,20.59,0,0,1-.42-4.33,42.8,42.8,0,0,1,.29-4.43Z"/><path class="cls-1" d="M69.05,163.92a5.83,5.83,0,0,0-3.71,1.16c-2,1.55-3,2.93-3,4.14a4.53,4.53,0,0,0,0,.53,12,12,0,0,0,.7,2.63,3.1,3.1,0,0,0,3,2h.58c4.52-.67,7.82-1.88,9.86-3.62a31.77,31.77,0,0,1-.92-5.12,19.67,19.67,0,0,0-1-4.94,4.45,4.45,0,0,0-4.39-2.85c-1.64,0-3.48.88-5.57,2.67a1.11,1.11,0,0,0-.18.6,1.57,1.57,0,0,0,.33.92,1,1,0,0,0,.79.52L67.85,161a4,4,0,0,1,2.12-.75,2.45,2.45,0,0,1,1.18.29,3.91,3.91,0,0,1,2.06,3.67,20.53,20.53,0,0,1-2.06-.17A20.49,20.49,0,0,0,69.05,163.92Zm4.41,4.23.16,1.89a4.29,4.29,0,0,1-1.81,1.05c-2.39.44-3.92.69-4.63.73a3.71,3.71,0,0,1-1.17-.14A1.57,1.57,0,0,1,64.8,170a2.66,2.66,0,0,1,.54-1.56,5.31,5.31,0,0,1,4.5-2.39,9,9,0,0,1,2.74.5A2.39,2.39,0,0,1,73.46,168.15Z"/><path class="cls-1" d="M91,162.54a2.36,2.36,0,0,0-.09.55,2.3,2.3,0,0,0,.67,1.61,2.24,2.24,0,0,0,1,.75c2.08.72,3.33,1.15,3.76,1.31,3.5,1.25,5.22,2.23,5.16,2.91Q101.3,172,96.51,172c-.36,0-1,0-1.82,0-1.54-.08-2.39-.14-2.54-.17l-1-.22a.32.32,0,0,0-.25.09,3.53,3.53,0,0,0-.07.47,2.6,2.6,0,0,0,1.11,2.12h4.15a30.11,30.11,0,0,0,3.16-.15c2.58-.32,4.26-1.23,5-2.79a2.69,2.69,0,0,0,.27-1.24,4.21,4.21,0,0,0-1.35-2.88,6,6,0,0,0-2.52-1.65,20.1,20.1,0,0,0-2.58-.68c-2-.44-3.08-1-3.08-1.5a2,2,0,0,1,1.39-1.81,16.11,16.11,0,0,1,2.83-1,6.47,6.47,0,0,0,2.34-1l-.21-1.67a20.72,20.72,0,0,0-4,.94C93.58,160,91.49,161.22,91,162.54Z"/><path class="cls-1" d="M112.83,163.92a5.78,5.78,0,0,0-3.72,1.16c-2,1.55-3,2.93-3,4.14a2.32,2.32,0,0,0,0,.53,12.11,12.11,0,0,0,.69,2.63,3.11,3.11,0,0,0,3,2h.6q6.75-1,9.85-3.62a26.77,26.77,0,0,1-.93-5.12,18.64,18.64,0,0,0-1.07-4.94A4.44,4.44,0,0,0,114,157.8c-1.61,0-3.46.88-5.54,2.67a1,1,0,0,0-.19.6,1.51,1.51,0,0,0,.33.92,1,1,0,0,0,.78.52l2.23-1.47a4,4,0,0,1,2.11-.75,2.41,2.41,0,0,1,1.19.29,3.91,3.91,0,0,1,2.08,3.67c-.43,0-1.11-.06-2.08-.17S113.32,163.92,112.83,163.92Zm4.4,4.23.18,1.89a4.44,4.44,0,0,1-1.83,1.05c-2.37.44-3.9.69-4.65.73a3.53,3.53,0,0,1-1.14-.14,1.58,1.58,0,0,1-1.24-1.65,2.69,2.69,0,0,1,.56-1.56,5.34,5.34,0,0,1,4.51-2.39,9.07,9.07,0,0,1,2.73.5A2.35,2.35,0,0,1,117.23,168.15Z"/><path class="cls-1" d="M125.68,158.67c.1-1.69.16-3.26.16-4.79a2.6,2.6,0,0,0-1.59-.77,1.86,1.86,0,0,0-.48,0q-.9,10.13-.9,15.31a37.53,37.53,0,0,0,.49,6.79,3.17,3.17,0,0,1,1-.72c.14-.05.55-.19,1.15-.42a38.36,38.36,0,0,1-.33-5.25c0-1.23.08-2.79.17-4.63Z"/><path class="cls-1" d="M134,171.09a1.22,1.22,0,0,1-.72-.2,5.6,5.6,0,0,1-1.58-3.5c-.08-.53-.15-2-.22-4.33a14.07,14.07,0,0,0-.5-3.94c-1.53,0-2.28.52-2.28,1.5V162c0,7.9,1.34,11.85,4,11.85l.27,0h.48a7,7,0,0,0,2.82-.61,15.15,15.15,0,0,0,2.38-1.33c1.15-.78,1.9-1.25,2.21-1.43a8.25,8.25,0,0,0,1.13,2.06c.28.33.67.78,1.17,1.31a3.23,3.23,0,0,0,2.66-.94,17.25,17.25,0,0,0-1.4-1.53,4.11,4.11,0,0,1-1.06-1.4,6.86,6.86,0,0,1-.41-2.41v-.34c0-.2.12-1.47.39-3.76a23.32,23.32,0,0,0,.18-2.54c0-1.34-.21-2.15-.66-2.44a1.8,1.8,0,0,0-.72-.16,1.73,1.73,0,0,0-.87.27c-.36.19-.54.41-.52.65,0,.48.09.86.11,1.13s0,.82,0,1.72c0,2.78-.73,4.87-2.17,6.3C136.93,170.21,135.37,171.09,134,171.09Z"/><path class="cls-1" d="M149.41,160.82a7.34,7.34,0,0,0-3.35,6.69,8.24,8.24,0,0,0,1.18,4.49,4.23,4.23,0,0,0,3.8,2.18c.14,0,1.26-.13,3.3-.41a11,11,0,0,0,2.54-.68v2a4.71,4.71,0,0,1,2.07-.87c.06-1.16.13-2.35.13-3.56a83.66,83.66,0,0,0-.54-8.67c-.53-5.59-.82-8.46-.86-8.64a1.86,1.86,0,0,0-1.57-.77.88.88,0,0,0-.76.3,40.24,40.24,0,0,0,.52,6.22A12,12,0,0,0,149.41,160.82Zm7.11,3.78c.06,1.69.09,3.29.09,4.83a7.11,7.11,0,0,1-5.25,2,2.81,2.81,0,0,1-1.65-.68,3.27,3.27,0,0,1-1.43-2.85,9.1,9.1,0,0,1,.34-2.41,3.11,3.11,0,0,1,1.2-1.9,8.88,8.88,0,0,1,4.67-1.49,9.71,9.71,0,0,1,1.56.14A7,7,0,0,1,156.52,164.6Z"/><path class="cls-1" d="M173.06,167.54a6.36,6.36,0,0,0,1.06,3.73,7,7,0,0,0,5.23,2.73h1.54a32.12,32.12,0,0,0,7.9-.83c1.49-.38,2.24-.65,2.22-.79l-.1-1.53c0-.28,0-.44,0-.44a.35.35,0,0,0-.35-.19,18.87,18.87,0,0,0-2.9.39l-3.41.66a17.2,17.2,0,0,1-3.05.32,10.62,10.62,0,0,1-4.19-.82,2.44,2.44,0,0,1-1-1.1,3.31,3.31,0,0,1-.48-1.47c0-.09,0-.16.08-.19a43.12,43.12,0,0,0,12.91-4.83l.23-.19a1.37,1.37,0,0,1,0-.34c-.05-.16-.07-.26-.09-.35a7.77,7.77,0,0,0-1.64-2.61,4.56,4.56,0,0,0-3.32-1.55,12.75,12.75,0,0,0-5.4,1.21A8.33,8.33,0,0,0,173.06,167.54Zm9.42-7.11c1.37,0,2.17.58,2.37,1.76a6.22,6.22,0,0,0-.74.27l-1.88.83c-1.6.72-2.69,1.2-3.2,1.45a15.57,15.57,0,0,1-3,1,.74.74,0,0,1-.3-.62,2.64,2.64,0,0,1,.76-1.63,8.44,8.44,0,0,1,4.54-2.84A6,6,0,0,1,182.48,160.43Z"/><path class="cls-1" d="M197.7,172c-.36,0-1,0-1.83,0-1.52-.08-2.37-.14-2.52-.17l-1-.22a.25.25,0,0,0-.23.09c0,.22-.06.38-.06.47a2.61,2.61,0,0,0,1.09,2.12h4.17a30.19,30.19,0,0,0,3.15-.15c2.58-.32,4.24-1.23,5-2.79a2.58,2.58,0,0,0,.29-1.24,4.11,4.11,0,0,0-1.34-2.88,6,6,0,0,0-2.53-1.65,18.16,18.16,0,0,0-2.56-.68c-2-.44-3.07-1-3.07-1.5a2,2,0,0,1,1.36-1.81,16.7,16.7,0,0,1,2.81-1,6.42,6.42,0,0,0,2.38-1l-.23-1.67a20.81,20.81,0,0,0-4,.94c-3.71,1.17-5.81,2.42-6.26,3.74a2.72,2.72,0,0,0-.07.55,2.32,2.32,0,0,0,.65,1.61,2.35,2.35,0,0,0,1,.75c2.07.72,3.35,1.15,3.77,1.31,3.53,1.25,5.22,2.23,5.17,2.91C202.58,171.22,200.89,172,197.7,172Z"/><path class="cls-1" d="M225,170a8.11,8.11,0,0,0,5.72-2.57,3.5,3.5,0,0,0,.57-1.64,11.38,11.38,0,0,0,.15-2.83,5,5,0,0,0-.85-2.82c-1.36-1.59-3.41-2.4-6.14-2.4a18.77,18.77,0,0,0-4.84.74,57.38,57.38,0,0,0,.09,7.54,87.25,87.25,0,0,0,1.46,11.76l1.17,0a1.75,1.75,0,0,0,1.23-.55c-.5-4.42-.75-6.84-.79-7.27A11.46,11.46,0,0,0,225,170Zm-2.44-2.77c-.23-2.38-.35-3.91-.41-4.59s-.06-1.49-.06-2.16a9.59,9.59,0,0,1,1.81-.34,7.78,7.78,0,0,1,4.19,1.19c.32.18.53.82.59,1.92.1,1.4,0,2.26-.35,2.59a5,5,0,0,1-3.2,1.51C224.69,167.4,223.85,167.37,222.56,167.27Z"/><path class="cls-1" d="M236,160.47a1.11,1.11,0,0,0-.18.6,1.69,1.69,0,0,0,.31.92,1,1,0,0,0,.81.52l2.23-1.47a4,4,0,0,1,2.1-.75,2.41,2.41,0,0,1,1.19.29,3.93,3.93,0,0,1,2.07,3.67,20.68,20.68,0,0,1-2.07-.17,20.53,20.53,0,0,0-2.09-.16,5.79,5.79,0,0,0-3.71,1.16c-2,1.55-3,2.93-3,4.14a1.88,1.88,0,0,0,.06.53,11,11,0,0,0,.7,2.63,3.08,3.08,0,0,0,3,2h.58c4.55-.67,7.8-1.88,9.88-3.62a28.06,28.06,0,0,1-.95-5.12,18.4,18.4,0,0,0-1.05-4.94,4.46,4.46,0,0,0-4.38-2.85C239.94,157.8,238.09,158.68,236,160.47Zm8.77,7.68.18,1.89a4.46,4.46,0,0,1-1.82,1.05c-2.38.44-3.91.69-4.65.73a3.84,3.84,0,0,1-1.17-.14,1.56,1.56,0,0,1-1.19-1.65,2.8,2.8,0,0,1,.54-1.56,5.33,5.33,0,0,1,4.49-2.39,9,9,0,0,1,2.75.5A2.34,2.34,0,0,1,244.76,168.15Z"/><path class="cls-1" d="M256.54,162.43a10.36,10.36,0,0,1,3-2,7,7,0,0,1,3.55-.31,4.4,4.4,0,0,1,2.44,1.09c.44,0,.68-.59.68-1.64A7.78,7.78,0,0,0,266,158a5.11,5.11,0,0,0-2.39-.59,15.28,15.28,0,0,0-2.62-.11q-5.19.38-8.58,5.6l-.25-3.17a.6.6,0,0,0-.51-.18,2.35,2.35,0,0,0-.9.41l-.24,0-.37,0a52.37,52.37,0,0,0,.57,6.88l.66,4.84c.22,1.5.36,2.8.46,3.92l2-.12c-.06-.51-.12-1.26-.26-2.22-.23-1.88-.36-3.12-.41-3.72a15.92,15.92,0,0,1,.05-3.05A13.47,13.47,0,0,1,256.54,162.43Z"/><path class="cls-1" d="M273.18,163.92a5.77,5.77,0,0,0-3.71,1.16c-2,1.55-3,2.93-3,4.14a2.32,2.32,0,0,0,0,.53,12.61,12.61,0,0,0,.7,2.63,3.11,3.11,0,0,0,3.05,2h.59q6.78-1,9.86-3.62a31,31,0,0,1-.95-5.12,18.09,18.09,0,0,0-1-4.94,4.43,4.43,0,0,0-4.38-2.85c-1.62,0-3.47.88-5.55,2.67a1,1,0,0,0-.22.6,1.52,1.52,0,0,0,.34.92,1,1,0,0,0,.79.52L272,161a4,4,0,0,1,2.1-.75,2.45,2.45,0,0,1,1.2.29,4,4,0,0,1,2.09,3.67,21,21,0,0,1-2.09-.17C274.35,164,273.68,163.92,273.18,163.92Zm4.4,4.23.17,1.89a4.17,4.17,0,0,1-1.81,1.05c-2.37.44-3.93.69-4.66.73a3.69,3.69,0,0,1-1.15-.14,1.56,1.56,0,0,1-1.2-1.65,2.53,2.53,0,0,1,.54-1.56,5.31,5.31,0,0,1,4.51-2.39,8.8,8.8,0,0,1,2.71.5A2.32,2.32,0,0,1,277.58,168.15Z"/><path class="cls-1" d="M303.42,158.67a8.36,8.36,0,0,1,.3-2,17.94,17.94,0,0,0,.68-3,2.2,2.2,0,0,0-1-.2c-.63,0-1,.17-1.23.53a29.67,29.67,0,0,1-.55,3c-.16.78-.37,1.68-.66,2.71a17.08,17.08,0,0,1-3,.61,29,29,0,0,0-3,.48,5.14,5.14,0,0,0-2.38,1.14l.42,1.19a4.18,4.18,0,0,0,.51,1.19A15.67,15.67,0,0,1,297,163a30.5,30.5,0,0,1,3.66-.6c0,1.55.05,2.92.15,4,.3,3.79,1.12,6.28,2.5,7.45a3,3,0,0,0,1.88.81c2.32,0,4-.54,4.82-1.62a5,5,0,0,0-.41-1.56,2.14,2.14,0,0,0-.42,0,4.18,4.18,0,0,0-1.29.27,10.27,10.27,0,0,1-1.95.55,1.2,1.2,0,0,1-.86-.36q-1.94-1.81-1.94-5.52c0-.4,0-1.33.1-2.78.05-.64.07-1.17.07-1.56l6.23-1.12c.61,0,.93-.5.93-1.52,0-.51-.1-.8-.32-.88a15.13,15.13,0,0,0-1.9.2,38,38,0,0,1-4.73.61A2.87,2.87,0,0,1,303.42,158.67Z"/><path class="cls-1" d="M318.42,173.68a21.88,21.88,0,0,0,6.1.67c4,0,6.33-1.62,7.07-4.89a11.8,11.8,0,0,0,.28-2.45,9.81,9.81,0,0,0-1.26-5,7.66,7.66,0,0,0-3.68-3.37,15.46,15.46,0,0,0-6-1.5c-2.85,0-5.23,1.38-7.13,4.11a6.69,6.69,0,0,0-1.18,3.88,9.58,9.58,0,0,0,1.46,5.31A7.52,7.52,0,0,0,318.42,173.68Zm-2.22-11.09q1-3,4.58-3a10.15,10.15,0,0,1,5.33,1.68,8.23,8.23,0,0,1,2.4,2.35,6.09,6.09,0,0,1,1.2,3.46,3.73,3.73,0,0,1-.36,1.64,5.1,5.1,0,0,1-4.83,2.76c-.33,0-1.5-.12-3.5-.37l-.49-.07c-.76-.09-1.19-.15-1.34-.18a4.23,4.23,0,0,1-3.52-2.68,5.21,5.21,0,0,1-.35-1.91A12.31,12.31,0,0,1,316.2,162.59Z"/><path class="cls-1" d="M346.7,174.22c.06-1.16.12-2.35.12-3.56,0-2.31-.17-5.21-.51-8.67-.55-5.59-.85-8.46-.85-8.64a1.92,1.92,0,0,0-1.58-.77.89.89,0,0,0-.77.3,44.08,44.08,0,0,0,.48,6.22,12.06,12.06,0,0,0-6.45,1.72,7.4,7.4,0,0,0-3.34,6.69A8.24,8.24,0,0,0,335,172a4.2,4.2,0,0,0,3.76,2.18c.18,0,1.29-.13,3.34-.41a11.58,11.58,0,0,0,2.53-.68v2A4.76,4.76,0,0,1,346.7,174.22Zm-7.59-2.77a2.83,2.83,0,0,1-1.65-.68,3.24,3.24,0,0,1-1.42-2.85,10,10,0,0,1,.33-2.41,3.38,3.38,0,0,1,1.18-1.9,9,9,0,0,1,4.68-1.49,9.85,9.85,0,0,1,1.58.14,7.27,7.27,0,0,1,.44,2.34c.07,1.69.11,3.29.11,4.83A7.14,7.14,0,0,1,339.11,171.45Z"/><path class="cls-1" d="M364,158.68a15.5,15.5,0,0,0-6-1.5c-2.88,0-5.24,1.38-7.16,4.11a6.68,6.68,0,0,0-1.17,3.88,9.66,9.66,0,0,0,1.46,5.31,7.44,7.44,0,0,0,4.33,3.2,21.86,21.86,0,0,0,6.11.67c3.93,0,6.31-1.62,7.06-4.89a12.49,12.49,0,0,0,.24-2.45,9.89,9.89,0,0,0-1.22-5A7.82,7.82,0,0,0,364,158.68Zm2.38,10.06a5.05,5.05,0,0,1-4.79,2.76c-.33,0-1.51-.12-3.52-.37l-.49-.07c-.76-.09-1.19-.15-1.31-.18a4.31,4.31,0,0,1-3.57-2.68,5.64,5.64,0,0,1-.33-1.91,12.69,12.69,0,0,1,.85-3.7q1.06-3,4.58-3a10.11,10.11,0,0,1,5.36,1.68,8.11,8.11,0,0,1,2.4,2.35,6.09,6.09,0,0,1,1.2,3.46A3.48,3.48,0,0,1,366.39,168.74Z"/><path class="cls-1" d="M376.78,172c-.33,0-1,0-1.81,0-1.54-.08-2.4-.14-2.53-.17l-1-.22a.34.34,0,0,0-.26.09c0,.22-.05.38-.05.47a2.65,2.65,0,0,0,1.1,2.12h4.15a30.88,30.88,0,0,0,3.19-.15c2.55-.32,4.2-1.23,5-2.79a2.57,2.57,0,0,0,.27-1.24,4.17,4.17,0,0,0-1.35-2.88,5.75,5.75,0,0,0-2.5-1.65,20.23,20.23,0,0,0-2.6-.68c-2-.44-3.05-1-3.05-1.5a2.05,2.05,0,0,1,1.36-1.81,16.11,16.11,0,0,1,2.83-1,6.53,6.53,0,0,0,2.36-1l-.22-1.67a20.24,20.24,0,0,0-4,.94q-5.58,1.75-6.25,3.74a3.06,3.06,0,0,0-.09.55,2.46,2.46,0,0,0,.65,1.61,2.37,2.37,0,0,0,1.05.75c2.09.72,3.35,1.15,3.78,1.31,3.49,1.25,5.22,2.23,5.15,2.91C381.68,171.22,380,172,376.78,172Z"/><path class="cls-1" d="M613.28,140.11a10.2,10.2,0,1,0-9.94-10.2A10.07,10.07,0,0,0,613.28,140.11Zm0-19.09a8.9,8.9,0,1,1-8.67,8.89A8.78,8.78,0,0,1,613.28,121Z"/><path class="cls-1" d="M610.33,130.57h1.77a5,5,0,0,1,.85.06,2.21,2.21,0,0,1,.7.32,3.41,3.41,0,0,1,.78.79c.29.38.66.93,1.11,1.64l1.52,2.47H619l-2-3.24A8.38,8.38,0,0,0,615.7,131a3.77,3.77,0,0,0-.92-.58,4,4,0,0,0,2.47-1.11,3,3,0,0,0,.79-2.12,3.43,3.43,0,0,0-.48-1.79,2.57,2.57,0,0,0-1.29-1.13,6.67,6.67,0,0,0-2.35-.32H608.8v11.87h1.53Zm0-5.28H614a2.76,2.76,0,0,1,1.87.54,1.73,1.73,0,0,1,.6,1.39,2,2,0,0,1-.31,1.07,1.71,1.71,0,0,1-.89.7,4.86,4.86,0,0,1-1.65.22h-3.28Z"/><path class="cls-1" d="M380.24,215.24a3,3,0,0,0,2.32-1,4.16,4.16,0,0,0,0-5.14,3.21,3.21,0,0,0-4.64,0,4.07,4.07,0,0,0,0,5.14A3,3,0,0,0,380.24,215.24Z"/><path class="cls-1" d="M399,208.79a3.24,3.24,0,0,0-4.3,0,3.74,3.74,0,0,0-1.08,2.18h6.25A3.15,3.15,0,0,0,399,208.79Z"/><path class="cls-1" d="M429.42,215.9a3.21,3.21,0,0,0,2.46-1,4.36,4.36,0,0,0,0-5.46,3.45,3.45,0,0,0-4.94,0,4.36,4.36,0,0,0,0,5.46A3.21,3.21,0,0,0,429.42,215.9Z"/><path class="cls-1" d="M492.34,216.31a3.79,3.79,0,0,0,2.12-.59,2.3,2.3,0,0,0,1.07-1.48V213h-3.09a3,3,0,0,0-1.69.37,1.32,1.32,0,0,0-.55,1.18,1.57,1.57,0,0,0,.57,1.27A2.45,2.45,0,0,0,492.34,216.31Z"/><path class="cls-1" d="M469.2,215.24a3,3,0,0,0,2.32-1,4.16,4.16,0,0,0,0-5.14,3.21,3.21,0,0,0-4.64,0,3.79,3.79,0,0,0-.91,2.58,3.75,3.75,0,0,0,.9,2.56A3,3,0,0,0,469.2,215.24Z"/><path class="cls-1" d="M164.87,215.9a3.21,3.21,0,0,0,2.46-1,4.36,4.36,0,0,0,0-5.46,3.45,3.45,0,0,0-4.94,0,4.36,4.36,0,0,0,0,5.46A3.21,3.21,0,0,0,164.87,215.9Z"/><path class="cls-1" d="M137.48,216.31a3.76,3.76,0,0,0,2.11-.59,2.26,2.26,0,0,0,1.07-1.48V213h-3.08a3.06,3.06,0,0,0-1.7.37,1.33,1.33,0,0,0-.54,1.18,1.57,1.57,0,0,0,.57,1.27A2.41,2.41,0,0,0,137.48,216.31Z"/><path class="cls-1" d="M290.1,215.9a3.21,3.21,0,0,0,2.46-1,4.4,4.4,0,0,0,0-5.46,3.45,3.45,0,0,0-4.94,0,4.36,4.36,0,0,0,0,5.46A3.21,3.21,0,0,0,290.1,215.9Z"/><path class="cls-1" d="M199.3,215.9a3.21,3.21,0,0,0,2.46-1,4.36,4.36,0,0,0,0-5.46,3.45,3.45,0,0,0-4.94,0,4.36,4.36,0,0,0,0,5.46A3.21,3.21,0,0,0,199.3,215.9Z"/><path class="cls-1" d="M364.05,216.31a3.79,3.79,0,0,0,2.12-.59,2.3,2.3,0,0,0,1.07-1.48V213h-3.08a3.06,3.06,0,0,0-1.7.37,1.34,1.34,0,0,0-.55,1.18,1.58,1.58,0,0,0,.58,1.27A2.4,2.4,0,0,0,364.05,216.31Z"/><path class="cls-1" d="M453.53,215.9a3.21,3.21,0,0,0,2.46-1,4.36,4.36,0,0,0,0-5.46,3.45,3.45,0,0,0-4.94,0,4.36,4.36,0,0,0,0,5.46A3.21,3.21,0,0,0,453.53,215.9Z"/><path class="cls-1" d="M592.8,208.79a3.23,3.23,0,0,0-4.29,0,3.75,3.75,0,0,0-1.09,2.18h6.25A3.15,3.15,0,0,0,592.8,208.79Z"/><path class="cls-1" d="M112.63,215.9a3.21,3.21,0,0,0,2.46-1,4.4,4.4,0,0,0,0-5.46,3.21,3.21,0,0,0-2.46-1,3.24,3.24,0,0,0-2.49,1,4.4,4.4,0,0,0,0,5.46A3.24,3.24,0,0,0,112.63,215.9Z"/><path class="cls-1" d="M549.76,208.79a3.24,3.24,0,0,0-4.3,0,3.69,3.69,0,0,0-1.08,2.18h6.24A3.1,3.1,0,0,0,549.76,208.79Z"/><path class="cls-1" d="M78.56,216.31a3.76,3.76,0,0,0,2.11-.59,2.26,2.26,0,0,0,1.07-1.48V213H78.66a3.06,3.06,0,0,0-1.7.37,1.33,1.33,0,0,0-.54,1.18,1.57,1.57,0,0,0,.57,1.27A2.41,2.41,0,0,0,78.56,216.31Z"/><path class="cls-1" d="M96.47,215.82a3.15,3.15,0,0,0,2.45-1,4.43,4.43,0,0,0,0-5.46,3.16,3.16,0,0,0-2.45-1.06A3.19,3.19,0,0,0,94,209.31a4.41,4.41,0,0,0,0,5.47A3.18,3.18,0,0,0,96.47,215.82Z"/><path class="cls-1" d="M45.41,236.76H623.22V184.37H45.41Zm143.93-17.83h-3.93V205.22h3.93Zm52.11,0h-3.92V205.22h3.92Zm24.77,0H262.3V205.22h3.92Zm217.61,0h-3.92V205.22h3.92Zm121.85-4.69a10.54,10.54,0,0,0-1.92-.71,17.46,17.46,0,0,1-2.33-.82,4.23,4.23,0,0,1-1.6-1.23,3.34,3.34,0,0,1-.66-2.15,3.68,3.68,0,0,1,1.53-3.16,6.36,6.36,0,0,1,3.87-1.13,10.48,10.48,0,0,1,2.81.4,9.48,9.48,0,0,1,2.55,1.13l-1.36,2.68a10.92,10.92,0,0,0-2.21-1,6.66,6.66,0,0,0-2-.35,2.25,2.25,0,0,0-1.15.26.82.82,0,0,0-.43.76.94.94,0,0,0,.58.87,12.12,12.12,0,0,0,1.91.69,20.59,20.59,0,0,1,2.4.85,4.49,4.49,0,0,1,1.63,1.25,3.29,3.29,0,0,1,.69,2.18,3.69,3.69,0,0,1-1.57,3.17,6.65,6.65,0,0,1-4,1.14,10.6,10.6,0,0,1-3.24-.5,8.08,8.08,0,0,1-2.7-1.42l1.27-2.65a8.11,8.11,0,0,0,2.33,1.27,7.64,7.64,0,0,0,2.44.44,2.53,2.53,0,0,0,1.26-.27.86.86,0,0,0,.47-.8A1,1,0,0,0,605.68,214.24Zm-21.24-5.79a6.28,6.28,0,0,1,2.5-2.48,7.57,7.57,0,0,1,3.67-.88,6.4,6.4,0,0,1,5,1.92,7.65,7.65,0,0,1,1.72,5.32c0,.41,0,.72,0,.95H587.5A3.49,3.49,0,0,0,591,216a4.85,4.85,0,0,0,3.47-1.46l2.06,2.09a6.74,6.74,0,0,1-2.53,1.8,8.52,8.52,0,0,1-3.33.63,7.84,7.84,0,0,1-3.78-.87,6,6,0,0,1-2.5-2.45,7.29,7.29,0,0,1-.88-3.64A7.45,7.45,0,0,1,584.44,208.45Zm-11.77-2.62h1.91v-3.77h3.9v3.77h3.72v2.73h-3.72v5.66c0,1.05.41,1.58,1.25,1.58a4.44,4.44,0,0,0,1.91-.51l.81,2.88a6.54,6.54,0,0,1-1.69.7,7.5,7.5,0,0,1-1.87.24,4.4,4.4,0,0,1-3.11-1.09,4,4,0,0,1-1.2-3.14v-6.34h-1.91Zm-15.78-.61h3.93v2.4a5.1,5.1,0,0,1,4.74-2.55,4.8,4.8,0,0,1,3.65,1.43,5.29,5.29,0,0,1,1.37,3.82v8.61h-3.93v-7.46a2.87,2.87,0,0,0-.72-2.06,2.65,2.65,0,0,0-2-.75,3,3,0,0,0-2.29,1,3.71,3.71,0,0,0-.84,2.51v6.75h-3.93Zm-15.49,3.23a6.22,6.22,0,0,1,2.5-2.48,7.57,7.57,0,0,1,3.67-.88,6.42,6.42,0,0,1,5,1.92,7.65,7.65,0,0,1,1.72,5.32c0,.41,0,.72,0,.95h-9.83A3.49,3.49,0,0,0,548,216a4.94,4.94,0,0,0,1.86-.37,5,5,0,0,0,1.61-1.09l2.06,2.09a6.77,6.77,0,0,1-2.54,1.8,8.43,8.43,0,0,1-3.32.63,7.88,7.88,0,0,1-3.79-.87,6,6,0,0,1-2.49-2.45,8,8,0,0,1,0-7.32Zm-13.71-7.36h4v14.33h7.65v3.51H527.69Zm-20,8.24h4.36V205h2.49v4.34h4.36v2.59h-4.36v4.31h-2.49v-4.31h-4.36Zm-19.81,2.48a6.18,6.18,0,0,1,3.86-1.11h3.77v-.25a2.07,2.07,0,0,0-.73-1.7,3.26,3.26,0,0,0-2.13-.6,8.44,8.44,0,0,0-4.07,1.2l-1.23-2.7a17.18,17.18,0,0,1,3.06-1.2,12.34,12.34,0,0,1,3.14-.38,6.33,6.33,0,0,1,4.26,1.3,4.6,4.6,0,0,1,1.55,3.62l0,8.94h-3.85v-1.6a4.4,4.4,0,0,1-1.78,1.32,6.4,6.4,0,0,1-2.52.46,4.84,4.84,0,0,1-3.44-1.18,4,4,0,0,1-1.28-3.1A3.64,3.64,0,0,1,487.9,211.81Zm-5.17-12.37,3.47,1.35-3.47,2.8-2.85-.25Zm-19.68,8.75a5.48,5.48,0,0,1,2.11-2.28,6,6,0,0,1,3.12-.82,5.17,5.17,0,0,1,2.37.53,4.88,4.88,0,0,1,1.76,1.46v-1.86h3.9v12.44a6.12,6.12,0,0,1-.92,3.38,6,6,0,0,1-2.57,2.21A8.87,8.87,0,0,1,469,224a10.55,10.55,0,0,1-3.2-.48,11,11,0,0,1-2.76-1.33l1.45-2.75a7.16,7.16,0,0,0,4.25,1.37,4,4,0,0,0,2.68-.82,2.77,2.77,0,0,0,1-2.23v-1.56a4.49,4.49,0,0,1-1.73,1.48,5.4,5.4,0,0,1-2.4.51,5.92,5.92,0,0,1-3.12-.83,5.55,5.55,0,0,1-2.11-2.33,7.67,7.67,0,0,1-.75-3.47A7.37,7.37,0,0,1,463.05,208.19Zm-16,.22a6.25,6.25,0,0,1,2.59-2.45,9,9,0,0,1,7.7,0,6.22,6.22,0,0,1,2.58,2.45,7.74,7.74,0,0,1,0,7.32,6.29,6.29,0,0,1-2.58,2.48,8.86,8.86,0,0,1-7.7,0,6.32,6.32,0,0,1-2.59-2.48,7.74,7.74,0,0,1,0-7.32ZM439.49,200h3.92v18.91h-3.92ZM423,208.41a6.31,6.31,0,0,1,2.59-2.45,9,9,0,0,1,7.7,0,6.22,6.22,0,0,1,2.58,2.45,7.74,7.74,0,0,1,0,7.32,6.29,6.29,0,0,1-2.58,2.48,8.86,8.86,0,0,1-7.7,0,6.38,6.38,0,0,1-2.59-2.48,7.82,7.82,0,0,1,0-7.32Zm-16.82-3.19h3.93v2.4a5.1,5.1,0,0,1,4.74-2.55,4.83,4.83,0,0,1,3.66,1.43,5.33,5.33,0,0,1,1.36,3.82v8.61h-3.93v-7.46a2.87,2.87,0,0,0-.72-2.06,2.63,2.63,0,0,0-2-.75,3,3,0,0,0-2.29,1,3.71,3.71,0,0,0-.84,2.51v6.75h-3.93Zm-15.49,3.23a6.22,6.22,0,0,1,2.5-2.48,7.57,7.57,0,0,1,3.67-.88,6.4,6.4,0,0,1,5,1.92,7.65,7.65,0,0,1,1.72,5.32c0,.41,0,.72,0,.95h-9.83a3.49,3.49,0,0,0,3.54,2.75,4.85,4.85,0,0,0,3.47-1.46l2.06,2.09a6.77,6.77,0,0,1-2.54,1.8,8.43,8.43,0,0,1-3.32.63,7.88,7.88,0,0,1-3.79-.87,6.06,6.06,0,0,1-2.49-2.45,8,8,0,0,1,0-7.32Zm-16.58-.26a5.5,5.5,0,0,1,2.12-2.28,6,6,0,0,1,3.12-.82,5.23,5.23,0,0,1,2.37.53,5,5,0,0,1,1.76,1.46v-1.86h3.9v12.44a6.2,6.2,0,0,1-.92,3.38,6.05,6.05,0,0,1-2.57,2.21A8.91,8.91,0,0,1,380,224a10.48,10.48,0,0,1-3.19-.48,10.92,10.92,0,0,1-2.77-1.33l1.45-2.75a7.17,7.17,0,0,0,4.26,1.37,4.09,4.09,0,0,0,2.68-.82,2.77,2.77,0,0,0,1-2.23v-1.56a4.56,4.56,0,0,1-1.73,1.48,5.43,5.43,0,0,1-2.4.51,5.92,5.92,0,0,1-3.12-.83,5.57,5.57,0,0,1-2.12-2.33,7.67,7.67,0,0,1-.75-3.47A7.37,7.37,0,0,1,374.08,208.19Zm-14.47,3.62a6.2,6.2,0,0,1,3.86-1.11h3.77v-.25a2.07,2.07,0,0,0-.73-1.7,3.25,3.25,0,0,0-2.12-.6,8.45,8.45,0,0,0-4.08,1.2l-1.22-2.7a16.81,16.81,0,0,1,3.05-1.2,12.39,12.39,0,0,1,3.14-.38,6.35,6.35,0,0,1,4.27,1.3,4.59,4.59,0,0,1,1.54,3.62l0,8.94h-3.84v-1.6a4.44,4.44,0,0,1-1.79,1.32,6.4,6.4,0,0,1-2.52.46,4.84,4.84,0,0,1-3.44-1.18,4,4,0,0,1-1.28-3.1A3.64,3.64,0,0,1,359.61,211.81Zm-26.77-6.59h3.92v2.37a5.55,5.55,0,0,1,7.57-1.69,4.49,4.49,0,0,1,1.71,2.33,5,5,0,0,1,1.92-2.35,5.83,5.83,0,0,1,3-.81,4.74,4.74,0,0,1,3.61,1.41,5.39,5.39,0,0,1,1.34,3.84v8.61H352v-7.46a2.85,2.85,0,0,0-.72-2.07,2.56,2.56,0,0,0-1.93-.74,2.81,2.81,0,0,0-2.22,1,3.7,3.7,0,0,0-.82,2.49v6.78h-3.9v-7.46a2.91,2.91,0,0,0-.7-2.06,2.49,2.49,0,0,0-1.92-.75,2.86,2.86,0,0,0-2.23,1,3.71,3.71,0,0,0-.83,2.49v6.78h-3.92Zm-7.9-4.13h4v17.84h-4Zm-20,8.24h4.36V205h2.49v4.34h4.36v2.59h-4.36v4.31h-2.49v-4.31H305Zm-21.31-.92a6.25,6.25,0,0,1,2.59-2.45,9,9,0,0,1,7.7,0,6.22,6.22,0,0,1,2.58,2.45,7.74,7.74,0,0,1,0,7.32,6.29,6.29,0,0,1-2.58,2.48,8.86,8.86,0,0,1-7.7,0,6.32,6.32,0,0,1-2.59-2.48,7.74,7.74,0,0,1,0-7.32Zm-13.95,0a6.21,6.21,0,0,1,2.47-2.48,7.56,7.56,0,0,1,3.68-.88,7.86,7.86,0,0,1,3.5.76,6.13,6.13,0,0,1,2.44,2.12l-2.65,1.92a3.74,3.74,0,0,0-3.06-1.46,3.13,3.13,0,0,0-2.4,1,3.77,3.77,0,0,0-.93,2.66,3.9,3.9,0,0,0,.91,2.69,3,3,0,0,0,2.35,1,3.53,3.53,0,0,0,3.18-1.6l2.7,1.83a5.75,5.75,0,0,1-2.43,2.25,8.09,8.09,0,0,1-3.66.79,7.42,7.42,0,0,1-3.64-.87,6.17,6.17,0,0,1-2.46-2.45,7.29,7.29,0,0,1-.88-3.64A7.45,7.45,0,0,1,269.7,208.45Zm-7-8.71a2.05,2.05,0,0,1,1.51-.61,2.11,2.11,0,0,1,1.55.61,2.21,2.21,0,0,1,.59,1.58,2.18,2.18,0,0,1-.59,1.58,2.07,2.07,0,0,1-1.55.61,2,2,0,0,1-1.51-.62,2.37,2.37,0,0,1,0-3.15Zm-17.5,5.48h3.93v2.4a5.1,5.1,0,0,1,4.74-2.55,4.8,4.8,0,0,1,3.65,1.43,5.29,5.29,0,0,1,1.37,3.82v8.61H255v-7.46a2.87,2.87,0,0,0-.72-2.06,2.65,2.65,0,0,0-2-.75,3,3,0,0,0-2.29,1,3.71,3.71,0,0,0-.84,2.51v6.75h-3.93Zm-4.86-5.78,3.46,1.35-3.46,2.8-2.86-.25Zm-10.68.58h3.92v18.91h-3.92Zm-14.77,8.43a6.21,6.21,0,0,1,2.47-2.48,7.56,7.56,0,0,1,3.68-.88,7.86,7.86,0,0,1,3.5.76A6.2,6.2,0,0,1,227,208l-2.65,1.92a3.74,3.74,0,0,0-3.06-1.46,3.13,3.13,0,0,0-2.4,1,3.73,3.73,0,0,0-.94,2.66,3.9,3.9,0,0,0,.92,2.69,3,3,0,0,0,2.35,1,3.53,3.53,0,0,0,3.18-1.6l2.7,1.83a5.75,5.75,0,0,1-2.43,2.25,8.09,8.09,0,0,1-3.66.79,7.42,7.42,0,0,1-3.64-.87,6.17,6.17,0,0,1-2.46-2.45,7.29,7.29,0,0,1-.88-3.64A7.45,7.45,0,0,1,214.91,208.45Zm-22.06,0a6.25,6.25,0,0,1,2.59-2.45,9,9,0,0,1,7.7,0,6.22,6.22,0,0,1,2.58,2.45,7.74,7.74,0,0,1,0,7.32,6.29,6.29,0,0,1-2.58,2.48,8.86,8.86,0,0,1-7.7,0,6.32,6.32,0,0,1-2.59-2.48,7.82,7.82,0,0,1,0-7.32Zm-7-8.67a2.22,2.22,0,0,1,3.06,0,2.17,2.17,0,0,1,.6,1.58,2.14,2.14,0,0,1-.6,1.58,2,2,0,0,1-1.54.61,2,2,0,0,1-1.52-.62,2.37,2.37,0,0,1,0-3.15Zm-11,5.48h3.93v2.47a4.94,4.94,0,0,1,1.86-1.93,5.45,5.45,0,0,1,2.67-.69v3.69l-.61,0a4.08,4.08,0,0,0-2.87,1,3.39,3.39,0,0,0-1,2.61v6.6h-3.93Zm-16.39,3.19A6.31,6.31,0,0,1,161,206a9,9,0,0,1,7.7,0,6.22,6.22,0,0,1,2.58,2.45,7.74,7.74,0,0,1,0,7.32,6.29,6.29,0,0,1-2.58,2.48,8.86,8.86,0,0,1-7.7,0,6.38,6.38,0,0,1-2.59-2.48,7.82,7.82,0,0,1,0-7.32Zm-11.79-2.58h1.91v-3.77h3.9v3.77h3.72v2.73h-3.72v5.66c0,1.05.41,1.58,1.24,1.58a4.45,4.45,0,0,0,1.92-.51l.81,2.88a6.54,6.54,0,0,1-1.69.7,7.51,7.51,0,0,1-1.88.24,4.44,4.44,0,0,1-3.11-1.09,4.07,4.07,0,0,1-1.19-3.14v-6.34h-1.91Zm-13.6,6a6.22,6.22,0,0,1,3.86-1.11h3.77v-.25a2.09,2.09,0,0,0-.72-1.7,3.3,3.3,0,0,0-2.13-.6,8.45,8.45,0,0,0-4.08,1.2l-1.22-2.7a16.61,16.61,0,0,1,3.06-1.2,12.26,12.26,0,0,1,3.13-.38,6.35,6.35,0,0,1,4.27,1.3,4.59,4.59,0,0,1,1.54,3.62l0,8.94h-3.85v-1.6a4.44,4.44,0,0,1-1.79,1.32,6.4,6.4,0,0,1-2.52.46,4.86,4.86,0,0,1-3.44-1.18,4,4,0,0,1-1.27-3.1A3.63,3.63,0,0,1,133,211.81Zm-10.46-6.59h3.92v2.47a5.08,5.08,0,0,1,1.86-1.93,5.52,5.52,0,0,1,2.68-.69v3.69l-.61,0a4.08,4.08,0,0,0-2.87,1,3.4,3.4,0,0,0-1.06,2.61v6.6h-3.92Zm-16.39,3.19a6.25,6.25,0,0,1,2.59-2.45,8.93,8.93,0,0,1,7.69,0,6.19,6.19,0,0,1,2.59,2.45,7.74,7.74,0,0,1,0,7.32,6.26,6.26,0,0,1-2.59,2.48,8.84,8.84,0,0,1-7.69,0,6.32,6.32,0,0,1-2.59-2.48,7.74,7.74,0,0,1,0-7.32ZM89.13,200h3.93v7.22a4.9,4.9,0,0,1,1.85-1.6,5.55,5.55,0,0,1,2.48-.55,6.52,6.52,0,0,1,3.38.88,6,6,0,0,1,2.27,2.49,8.21,8.21,0,0,1,.8,3.69,8.09,8.09,0,0,1-.79,3.64,5.89,5.89,0,0,1-2.23,2.43,6.36,6.36,0,0,1-3.35.87,5.72,5.72,0,0,1-2.54-.55,5.12,5.12,0,0,1-1.87-1.6v2H89.13Zm-15,11.79A6.22,6.22,0,0,1,78,210.7h3.77v-.25a2.09,2.09,0,0,0-.72-1.7,3.3,3.3,0,0,0-2.13-.6,8.45,8.45,0,0,0-4.08,1.2l-1.22-2.7a16.89,16.89,0,0,1,3.06-1.2,12.26,12.26,0,0,1,3.13-.38,6.34,6.34,0,0,1,4.27,1.3A4.59,4.59,0,0,1,85.59,210l0,8.94H81.77v-1.6A4.44,4.44,0,0,1,80,218.65a6.4,6.4,0,0,1-2.52.46A4.86,4.86,0,0,1,74,217.93a4,4,0,0,1-1.27-3.1A3.63,3.63,0,0,1,74.11,211.81ZM59.83,201.09h4v14.33H71.5v3.51H59.83Z"/></svg>