<svg xmlns="http://www.w3.org/2000/svg" viewBox="0 0 217.22 46.03"><defs><style>.cls-1{fill:#fcfcfc;}.cls-2{fill:#fff;}.cls-3{opacity:0.39;}.cls-4{fill:#666;}.cls-5,.cls-6{fill:#fffdfd;}.cls-6{fill-rule:evenodd;}.cls-7{fill:#ddd;}</style></defs><g id="Capa_2" data-name="Capa 2"><g id="Capa_1-2" data-name="Capa 1"><path id="Rectángulo_2972" data-name="Rectángulo 2972" class="cls-1" d="M99.43,15.73H104a2.41,2.41,0,0,1,2.4,2.4h0V33.05H97V18.13a2.41,2.41,0,0,1,2.4-2.4Z"/><path id="Trazado_10460" data-name="Trazado 10460" class="cls-2" d="M119.26,11.7a2.23,2.23,0,0,0-.83-1.17l-4.65-3.39c-.19-.15-.36-.3-.54-.43-.83-.64-1.76-1.3-2.92-2.09-1.94-1.32-3.68-2.5-5.47-3.65a5.82,5.82,0,0,0-3.1-1A6.76,6.76,0,0,0,98,1.26c-1.25.8-2.57,1.68-4,2.7s-2.82,2-4.22,3.06L85,10.54a1.84,1.84,0,0,0-.6,2.53,1.6,1.6,0,0,0,1.23.64,2.18,2.18,0,0,0,1.12-.27c0,.23,0,.46,0,.71,0,1.93,0,3.86,0,5.79v3.28c0,1.63,0,3.32,0,5,0,1.41.37.55,1,1.68.39.7,1-.2,1.65.3l.68-.42V27.87a.49.49,0,0,0,0-.12V22.8l0-8.34a12.75,12.75,0,0,1,.19-2.23A4.21,4.21,0,0,1,92,9.66l2.53-1.84.16-.12.91-.65c1.82-1.27,3.22-2.23,4.53-3.1a2.94,2.94,0,0,1,1.58-.64,3.14,3.14,0,0,1,1.8.72c1.57,1,3.11,2.12,4.27,2.94l1.1.78L110.59,9l.85.65A4.22,4.22,0,0,1,113,11.62a8.86,8.86,0,0,1,.37,2.9v1.14c0,2.39,0,4.81,0,7.15,0,1.43,0,2.85,0,4.27,0,.29,0,.6,0,.9v2.76l.85-.68a6.42,6.42,0,0,0,1-1c.93-1.17,1.42,1.11,1.5-.73,0-1.27,0-2.56,0-3.8,0-.5,0-1,0-1.49V21.27c0-2.28,0-4.64,0-7,0-.29,0-.59,0-.89a2.11,2.11,0,0,0,1.15.28,1.54,1.54,0,0,0,1.46-2Z"/><g id="Grupo_4592" data-name="Grupo 4592" class="cls-3"><path id="Trazado_10462" data-name="Trazado 10462" class="cls-4" d="M104,19.57a1.63,1.63,0,0,0-2.31,0h0a1.63,1.63,0,0,0-2.31,0h0a1.73,1.73,0,0,0,0,2.31c.58.76,1.64,2,2.31,2h0c.68,0,1.73-1.25,2.31-2A1.73,1.73,0,0,0,104,19.57Z"/></g><g id="Grupo_4598" data-name="Grupo 4598"><g id="Grupo_4593" data-name="Grupo 4593"><path id="Trazado_10463" data-name="Trazado 10463" class="cls-5" d="M207.34,31.89c0-.45-.07-.95-.08-1.48s0-1.09,0-1.66V22.57a10.53,10.53,0,0,0-.38-2.95,6.39,6.39,0,0,0-1.26-2.44,5.88,5.88,0,0,0-2.35-1.65,9.92,9.92,0,0,0-3.62-.62h-.14a16.72,16.72,0,0,0-2.74.25,14.46,14.46,0,0,0-2.26.6,10.28,10.28,0,0,0-1.59.71l1,3.56a6.87,6.87,0,0,1,1.36-.67,10.32,10.32,0,0,1,1.64-.49,8.88,8.88,0,0,1,1.78-.18c.3,0,.57,0,.82,0a3.49,3.49,0,0,1,.79.18,2.39,2.39,0,0,1,1,.56,1.92,1.92,0,0,1,.46.74,2.46,2.46,0,0,1,.12.76v.26a22.7,22.7,0,0,0-2.33.1c-.62.07-1.23.17-1.84.3a10,10,0,0,0-3.2,1.25A6,6,0,0,0,192.39,25a6.17,6.17,0,0,0-.72,3,5.73,5.73,0,0,0,.38,2.05,5.25,5.25,0,0,0,1.1,1.73A4.92,4.92,0,0,0,194.9,33a6,6,0,0,0,2.36.46,7.42,7.42,0,0,0,2.24-.34,4.19,4.19,0,0,0,.59-.22,5.55,5.55,0,0,0,2.12-1.62h.11l.32,1.78h4.85A10.16,10.16,0,0,1,207.34,31.89ZM202,26.6c0,.17,0,.33,0,.49s0,.31-.09.46a2.92,2.92,0,0,1-.58,1,2.89,2.89,0,0,1-1,.73,3.09,3.09,0,0,1-.85.25l-.4,0a2.39,2.39,0,0,1-1.08-.23,1.71,1.71,0,0,1-.76-.7,2.38,2.38,0,0,1-.28-1.17,2.28,2.28,0,0,1,.67-1.69,4,4,0,0,1,1.79-.88h.06a11.16,11.16,0,0,1,2.51-.22Z"/></g><g id="Grupo_4594" data-name="Grupo 4594"><path id="Trazado_10464" data-name="Trazado 10464" class="cls-5" d="M164.74,17.42h-.07a5.5,5.5,0,0,0-1.1-1.3,4.78,4.78,0,0,0-1.55-.88,5.77,5.77,0,0,0-1.23-.28,7.85,7.85,0,0,0-.87-.05,7.24,7.24,0,0,0-5.51,2.53,8.7,8.7,0,0,0-1.71,2.94,11.53,11.53,0,0,0-.63,3.86,11.11,11.11,0,0,0,.55,3.52,8.09,8.09,0,0,0,1.51,2.74,6.67,6.67,0,0,0,2.32,1.79,7,7,0,0,0,4.35.48,5.6,5.6,0,0,0,1.3-.46,5.13,5.13,0,0,0,2-1.72h.06v1.17a5.41,5.41,0,0,1-.59,2.67A3.62,3.62,0,0,1,162,36a4.59,4.59,0,0,1-1.15.39,6.3,6.3,0,0,1-1.15.1,11.74,11.74,0,0,1-2-.2,12.6,12.6,0,0,1-1.72-.51,9.27,9.27,0,0,1-1.35-.64l-1.06,4.17a8.5,8.5,0,0,0,1.81.77,14.31,14.31,0,0,0,2.14.46,15.64,15.64,0,0,0,2.27.15c.34,0,.68,0,1,0,.51,0,1-.09,1.53-.17a10.6,10.6,0,0,0,2.4-.68,7.84,7.84,0,0,0,2.11-1.31,6.79,6.79,0,0,0,1.54-2.1,10.23,10.23,0,0,0,.83-2.69,18.09,18.09,0,0,0,.25-3.2V20.56c0-.87,0-1.64,0-2.29s0-1.21.05-1.69.05-.91.07-1.28h-4.68Zm-.67,7.73a6.39,6.39,0,0,1,0,.75,3.34,3.34,0,0,1-.14.7,3,3,0,0,1-.59,1.16,2.68,2.68,0,0,1-1,.8,2.82,2.82,0,0,1-1.27.3l-.26,0a2.92,2.92,0,0,1-1.66-.62,3.78,3.78,0,0,1-1.2-1.69,6.53,6.53,0,0,1-.42-2.4,7.57,7.57,0,0,1,.48-2.74,4,4,0,0,1,1.28-1.71,3,3,0,0,1,1.52-.58h.26a2.78,2.78,0,0,1,2.31,1.15,4.06,4.06,0,0,1,.6,1.28A2.65,2.65,0,0,1,164,22a2.45,2.45,0,0,1,0,.54Z"/></g><g id="Grupo_4595" data-name="Grupo 4595"><path id="Trazado_10465" data-name="Trazado 10465" class="cls-5" d="M187.56,16.76a5.19,5.19,0,0,0-2-1.4,6.46,6.46,0,0,0-2.46-.45,7.05,7.05,0,0,0-1.94.28,6.32,6.32,0,0,0-1.54.71,6.66,6.66,0,0,0-1.14.92,5.84,5.84,0,0,0-.72.92h-.11l-.25-2.43h-4.67c0,.78.07,1.64.1,2.59s0,2,0,3.07v12.1h5.38V22.83a6,6,0,0,1,0-.74,3.55,3.55,0,0,1,.17-.64,3.51,3.51,0,0,1,.53-1,2.9,2.9,0,0,1,.9-.77,2.76,2.76,0,0,1,1.29-.31,2.54,2.54,0,0,1,1.58.49,2.84,2.84,0,0,1,.88,1.35,6.82,6.82,0,0,1,.27,2v9.84h5.38V22.54a11.17,11.17,0,0,0-.47-3.4A6.55,6.55,0,0,0,187.56,16.76Z"/></g><g id="Grupo_4596" data-name="Grupo 4596"><path id="Trazado_10466" data-name="Trazado 10466" class="cls-5" d="M139.68,13.3A9.24,9.24,0,0,0,137.54,11,11,11,0,0,0,135,9.56a14,14,0,0,0-3.18-.86l-.94-.13a26.81,26.81,0,0,0-3.1-.15c-1.38,0-2.68,0-3.93.12s-2.37.22-3.36.38V33c.66.1,1.5.18,2.51.25s2.21.11,3.6.11a26.52,26.52,0,0,0,4.27-.32,18.3,18.3,0,0,0,2-.45,12.33,12.33,0,0,0,4.7-2.39,10.74,10.74,0,0,0,2-2.41,12.44,12.44,0,0,0,1.39-3.3,17,17,0,0,0,.52-4.2,14.75,14.75,0,0,0-.5-3.9A10.15,10.15,0,0,0,139.68,13.3Zm-4.85,12A6.46,6.46,0,0,1,132,28.1a7.86,7.86,0,0,1-1.16.48,10.18,10.18,0,0,1-3.1.42h-1a4.93,4.93,0,0,1-.86-.1v-16a7.81,7.81,0,0,1,1-.15c.5-.05,1-.07,1.51-.07a9.72,9.72,0,0,1,2.52.31,7.65,7.65,0,0,1,1.49.57,6,6,0,0,1,2.58,2.62,9,9,0,0,1,.91,4.27A10.44,10.44,0,0,1,134.83,25.26Z"/></g><g id="Grupo_4597" data-name="Grupo 4597"><rect id="Rectángulo_2973" data-name="Rectángulo 2973" class="cls-5" x="144.22" y="15.31" width="5.38" height="17.76"/></g></g><g id="Grupo_4604" data-name="Grupo 4604"><g id="Grupo_4599" data-name="Grupo 4599"><path id="Trazado_10467" data-name="Trazado 10467" class="cls-2" d="M82.84,31.6c0-.56,0-1.18,0-1.84s0-1.32,0-2V7.25H77.39v9.66h-.07a4,4,0,0,0-1.78-1.47A6.5,6.5,0,0,0,73.92,15a9.2,9.2,0,0,0-1.17-.08,7.19,7.19,0,0,0-3,.63,7.27,7.27,0,0,0-2.48,1.85,8.88,8.88,0,0,0-1.7,2.95,12.43,12.43,0,0,0-.61,4,11.68,11.68,0,0,0,.58,3.76A8.76,8.76,0,0,0,67.16,31a6.92,6.92,0,0,0,2.35,1.84,6.71,6.71,0,0,0,2.89.65,7.08,7.08,0,0,0,1.52-.17,4.91,4.91,0,0,0,.63-.17,5.69,5.69,0,0,0,1.86-1,5.5,5.5,0,0,0,1.4-1.67h.08l.24,2.62h4.79C82.88,32.67,82.86,32.17,82.84,31.6Zm-5.45-6.45q0,.33,0,.66a3.39,3.39,0,0,1-.12.62,3.36,3.36,0,0,1-.6,1.37,3.06,3.06,0,0,1-1.08.94,3.19,3.19,0,0,1-1.42.34h-.22a3.3,3.3,0,0,1-1.74-.59,4,4,0,0,1-1.27-1.7,7.83,7.83,0,0,1-.22-4.57,5,5,0,0,1,.71-1.6,3.15,3.15,0,0,1,2.52-1.47h.24a3.09,3.09,0,0,1,1.49.38,3.17,3.17,0,0,1,1.08,1,3.64,3.64,0,0,1,.59,1.37,3.88,3.88,0,0,1,0,.48,2.05,2.05,0,0,1,0,.49Z"/></g><g id="Grupo_4600" data-name="Grupo 4600"><path id="Trazado_10468" data-name="Trazado 10468" class="cls-2" d="M34,30.41c0-.53,0-1.09,0-1.66V22.57a10.86,10.86,0,0,0-.38-2.95,6.67,6.67,0,0,0-1.27-2.45A5.86,5.86,0,0,0,30,15.53a10,10,0,0,0-3.63-.62h-.14a16.82,16.82,0,0,0-2.74.25,14.88,14.88,0,0,0-2.27.6,10.07,10.07,0,0,0-1.57.71l1,3.56A7.71,7.71,0,0,1,22,19.36a10.43,10.43,0,0,1,1.65-.49,8.88,8.88,0,0,1,1.78-.18,7.32,7.32,0,0,1,.81,0,3.7,3.7,0,0,1,.8.18,2.39,2.39,0,0,1,1,.56,2,2,0,0,1,.46.74,2.46,2.46,0,0,1,.12.76v.26a22.77,22.77,0,0,0-2.34.1,16.4,16.4,0,0,0-1.84.3,10,10,0,0,0-3.2,1.25A5.78,5.78,0,0,0,18.36,28a5.53,5.53,0,0,0,.39,2.05A5.18,5.18,0,0,0,21.6,33a6.16,6.16,0,0,0,2.36.46,7.29,7.29,0,0,0,2.22-.34,3.89,3.89,0,0,0,.6-.22,5.66,5.66,0,0,0,2.13-1.62H29l.33,1.78h4.85a9.49,9.49,0,0,1-.14-1.18C34,31.43,34,30.94,34,30.41ZM28.71,26.6c0,.17,0,.33,0,.49a3.4,3.4,0,0,1-.09.46,2.8,2.8,0,0,1-.59,1,3.14,3.14,0,0,1-1,.73,2.82,2.82,0,0,1-.86.24,2.56,2.56,0,0,1-.39,0,2.46,2.46,0,0,1-1.09-.23,1.67,1.67,0,0,1-.74-.7,2.28,2.28,0,0,1-.29-1.17,2.32,2.32,0,0,1,.67-1.69,3.9,3.9,0,0,1,1.8-.88h0a10.65,10.65,0,0,1,2.52-.22Z"/></g><g id="Grupo_4601" data-name="Grupo 4601"><rect id="Rectángulo_2974" data-name="Rectángulo 2974" class="cls-2" x="37.34" y="7.25" width="5.36" height="25.82"/></g><g id="Grupo_4602" data-name="Grupo 4602"><path id="Trazado_10469" data-name="Trazado 10469" class="cls-2" d="M62.53,27.37V15.31H57.11V25.88c0,.21,0,.44,0,.64a2.73,2.73,0,0,1-.15.56,3.28,3.28,0,0,1-.53.88,2.65,2.65,0,0,1-2.16,1,2.39,2.39,0,0,1-1.54-.5,2.87,2.87,0,0,1-.86-1.42,7.25,7.25,0,0,1-.29-2.22V15.31H46.14V25.74a12,12,0,0,0,.47,3.52,6.44,6.44,0,0,0,1.26,2.4A5.17,5.17,0,0,0,49.8,33a7.06,7.06,0,0,0,4.49.14,5.62,5.62,0,0,0,1.56-.75,5.93,5.93,0,0,0,1.8-1.85h.11L58,33.08h4.68c0-.75-.09-1.6-.1-2.54S62.53,28.54,62.53,27.37Z"/></g><g id="Grupo_4603" data-name="Grupo 4603"><path id="Trazado_10470" data-name="Trazado 10470" class="cls-2" d="M13.9,20.37a14,14,0,0,0-3.49-1.83c-.85-.32-1.69-.68-2.51-1.08a4.57,4.57,0,0,1-1.45-1.05,2.09,2.09,0,0,1-.08-2.5,2.69,2.69,0,0,1,1.15-.85,5.35,5.35,0,0,1,1.94-.33,11.45,11.45,0,0,1,3.8.65q.71.27,1.2.51l1.2-4.43a12.25,12.25,0,0,0-2.57-.9,16.09,16.09,0,0,0-3.53-.37,12.35,12.35,0,0,0-3.77.56,8.44,8.44,0,0,0-2.85,1.56,6.81,6.81,0,0,0-1.78,2.34,7.12,7.12,0,0,0-.63,2.91,6.09,6.09,0,0,0,.83,3.15,7.56,7.56,0,0,0,2.27,2.37,15.06,15.06,0,0,0,3.46,1.71,15.31,15.31,0,0,1,2.3,1,3.78,3.78,0,0,1,1.29,1.09,2.14,2.14,0,0,1,.4,1.34,2.28,2.28,0,0,1-.43,1.4,2.65,2.65,0,0,1-1.27.91,5.73,5.73,0,0,1-2.09.34,11.28,11.28,0,0,1-2.24-.23,12,12,0,0,1-2-.57,13.25,13.25,0,0,1-1.69-.73L.21,31.94A9.33,9.33,0,0,0,2,32.67a15.65,15.65,0,0,0,2.34.57A16,16,0,0,0,7,33.46a13.4,13.4,0,0,0,4.26-.61,8.27,8.27,0,0,0,3-1.66A6.77,6.77,0,0,0,16,28.76a7.35,7.35,0,0,0,.58-2.92,6.5,6.5,0,0,0-2.71-5.47Z"/></g></g><g id="Grupo_4606" data-name="Grupo 4606"><g id="Grupo_4605" data-name="Grupo 4605"><path id="Trazado_10471" data-name="Trazado 10471" class="cls-6" d="M149.37,7.3a3.51,3.51,0,0,1-.31,4.87A3.29,3.29,0,0,1,144.4,12l-.08-.1A3.49,3.49,0,0,1,144.63,7a3.31,3.31,0,0,1,4.67.22Z"/></g></g><g id="Grupo_4625" data-name="Grupo 4625"><g id="Grupo_4607" data-name="Grupo 4607"><path id="Trazado_10472" data-name="Trazado 10472" class="cls-2" d="M4.64,44.12s0,0,0,.07a.71.71,0,0,1,.17.36c0,.14-.11.26-.34.35l-.5,0c-.5,0-1,0-1.5-.08C1,44.67.16,44.33,0,43.81a39.13,39.13,0,0,1,.22-4.47,17,17,0,0,1,.32-2l.61-.16A6.81,6.81,0,0,1,1.2,38c0,.44,0,.87-.09,1.31L.93,40.71q-.08.7-.09,1.41A6.46,6.46,0,0,0,1,43.5,4.56,4.56,0,0,0,2.42,44c.5.07,1,.13,1.52.15Z"/></g><g id="Grupo_4608" data-name="Grupo 4608"><path id="Trazado_10473" data-name="Trazado 10473" class="cls-2" d="M6.71,44.92H6.53a1,1,0,0,1-1-.62,3.47,3.47,0,0,1-.22-.84.88.88,0,0,1,0-.17c0-.38.32-.82.94-1.31a1.81,1.81,0,0,1,1.18-.37,5,5,0,0,1,.67,0,4.89,4.89,0,0,0,.66.05,1.26,1.26,0,0,0-.66-1.17.82.82,0,0,0-.38-.09,1.36,1.36,0,0,0-.67.24l-.71.47A.3.3,0,0,1,6.1,41,.43.43,0,0,1,6,40.7a.41.41,0,0,1,0-.19,2.93,2.93,0,0,1,1.78-.85,1.42,1.42,0,0,1,1.4.91,6.36,6.36,0,0,1,.33,1.57,10.13,10.13,0,0,0,.29,1.63A6.25,6.25,0,0,1,6.71,44.92Zm1.86-2.47a3,3,0,0,0-.88-.15,1.69,1.69,0,0,0-1.43.76.79.79,0,0,0-.17.49.5.5,0,0,0,.38.53,1.17,1.17,0,0,0,.37,0,14.69,14.69,0,0,0,1.48-.23,1.46,1.46,0,0,0,.58-.33L8.84,43a.78.78,0,0,0-.27-.51Z"/></g><g id="Grupo_4609" data-name="Grupo 4609"><path id="Trazado_10474" data-name="Trazado 10474" class="cls-2" d="M18.63,44a1.84,1.84,0,0,1-1.59.88,6.77,6.77,0,0,1-1,0H14.71a.81.81,0,0,1-.35-.67.77.77,0,0,1,0-.15.11.11,0,0,1,.08,0l.33.07.8.06h.58c1,0,1.56-.25,1.62-.74q0-.33-1.65-.93l-1.2-.41a.91.91,0,0,1-.54-.75.57.57,0,0,1,0-.18c.14-.42.81-.82,2-1.19a7.2,7.2,0,0,1,1.28-.3l.07.53a2.1,2.1,0,0,1-.75.33,4.79,4.79,0,0,0-.9.31.66.66,0,0,0-.44.58c0,.17.33.34,1,.48a5.8,5.8,0,0,1,.82.21,2,2,0,0,1,.8.53,1.29,1.29,0,0,1,.43.92A.76.76,0,0,1,18.63,44Z"/></g><g id="Grupo_4610" data-name="Grupo 4610"><path id="Trazado_10475" data-name="Trazado 10475" class="cls-2" d="M20.64,44.92h-.19a1,1,0,0,1-1-.62,4,4,0,0,1-.22-.84.88.88,0,0,1,0-.17c0-.38.31-.82,1-1.31a1.79,1.79,0,0,1,1.18-.37,4.89,4.89,0,0,1,.66,0,4.89,4.89,0,0,0,.66.05A1.25,1.25,0,0,0,22,40.54a.85.85,0,0,0-.38-.09,1.36,1.36,0,0,0-.67.24l-.71.47A.32.32,0,0,1,20,41a.48.48,0,0,1-.1-.29.33.33,0,0,1,.06-.19,2.9,2.9,0,0,1,1.77-.85,1.41,1.41,0,0,1,1.39.91,5.58,5.58,0,0,1,.34,1.57,9,9,0,0,0,.3,1.63A6.34,6.34,0,0,1,20.64,44.92Zm1.85-2.47a3.24,3.24,0,0,0-.87-.15,1.7,1.7,0,0,0-1.44.76.86.86,0,0,0-.18.49.52.52,0,0,0,.4.53,1.11,1.11,0,0,0,.36,0,14.69,14.69,0,0,0,1.48-.23,1.4,1.4,0,0,0,.58-.33l-.06-.6a.78.78,0,0,0-.27-.51Z"/></g><g id="Grupo_4611" data-name="Grupo 4611"><path id="Trazado_10476" data-name="Trazado 10476" class="cls-2" d="M25.45,39.94l-.1,1.76c0,.58-.05,1.08-.05,1.47a10.4,10.4,0,0,0,.1,1.67L25,45a1,1,0,0,0-.32.23A12,12,0,0,1,24.55,43c0-1.1.1-2.72.29-4.87H25a.8.8,0,0,1,.5.25C25.5,38.9,25.48,39.4,25.45,39.94Z"/></g><g id="Grupo_4612" data-name="Grupo 4612"><path id="Trazado_10477" data-name="Trazado 10477" class="cls-2" d="M31,44.79c-.16-.17-.28-.31-.37-.42a2.64,2.64,0,0,1-.36-.66c-.1.06-.34.21-.7.46a4.32,4.32,0,0,1-.76.42,2.15,2.15,0,0,1-.9.2h-.24c-.84,0-1.27-1.25-1.27-3.77v-.45c0-.31.24-.47.73-.48a4.49,4.49,0,0,1,.16,1.26c0,.75,0,1.21.07,1.37a1.81,1.81,0,0,0,.5,1.12.46.46,0,0,0,.23.06,2.27,2.27,0,0,0,1.5-.83,2.74,2.74,0,0,0,.69-2c0-.28,0-.47,0-.54s0-.21,0-.36.05-.15.17-.21a.54.54,0,0,1,.28-.08.48.48,0,0,1,.23,0c.14.09.2.35.2.77a7.34,7.34,0,0,1-.05.81c-.09.73-.13,1.13-.13,1.2v.11a2.43,2.43,0,0,0,.13.76,1.49,1.49,0,0,0,.34.45,5.11,5.11,0,0,1,.45.48A1,1,0,0,1,31,44.79Z"/></g><g id="Grupo_4613" data-name="Grupo 4613"><path id="Trazado_10478" data-name="Trazado 10478" class="cls-2" d="M36,44.88a1.56,1.56,0,0,0-.66.28v-.64a3.24,3.24,0,0,1-.81.22l-1,.13a1.35,1.35,0,0,1-1.21-.7,2.55,2.55,0,0,1-.37-1.43A2.31,2.31,0,0,1,33,40.62a3.73,3.73,0,0,1,2.06-.55,13.23,13.23,0,0,1-.17-2,.31.31,0,0,1,.24-.1.6.6,0,0,1,.5.25c0,.06.11,1,.28,2.75.1.91.16,1.83.17,2.76C36.08,44.14,36.06,44.51,36,44.88Zm-.78-3.06a2.11,2.11,0,0,0-.14-.74,2.89,2.89,0,0,0-.5,0,2.74,2.74,0,0,0-1.49.47,1,1,0,0,0-.38.6,2.87,2.87,0,0,0-.11.77,1,1,0,0,0,.46.9.9.9,0,0,0,.52.22,2.29,2.29,0,0,0,1.67-.64c0-.49,0-1,0-1.54Z"/></g><g id="Grupo_4614" data-name="Grupo 4614"><path id="Trazado_10479" data-name="Trazado 10479" class="cls-2" d="M46.24,44.3s-.24.13-.71.25a10.15,10.15,0,0,1-2.51.26h-.49a2.2,2.2,0,0,1-1.67-.87,2,2,0,0,1-.33-1.18,2.66,2.66,0,0,1,1.63-2.61,4.11,4.11,0,0,1,1.72-.38,1.43,1.43,0,0,1,1,.49,2.5,2.5,0,0,1,.53.83s0,.08,0,.11,0,.08,0,.11l-.07.06a13.8,13.8,0,0,1-4.11,1.54,0,0,0,0,0,0,.06,1,1,0,0,0,.15.47.83.83,0,0,0,.32.35,3.58,3.58,0,0,0,1.33.26,6.25,6.25,0,0,0,1-.1l1.09-.21a5.66,5.66,0,0,1,.92-.13.11.11,0,0,1,.11.07s0,0,0,.14Zm-2-3.24c-.07-.38-.32-.56-.76-.56a1.76,1.76,0,0,0-.45.07,2.64,2.64,0,0,0-1.45.9.84.84,0,0,0-.24.52.26.26,0,0,0,.1.2,5.31,5.31,0,0,0,1-.32l1-.46.6-.27Z"/></g><g id="Grupo_4615" data-name="Grupo 4615"><path id="Trazado_10480" data-name="Trazado 10480" class="cls-2" d="M50.81,44a1.81,1.81,0,0,1-1.58.88,6.7,6.7,0,0,1-1,0H46.9a.82.82,0,0,1-.34-.67s0-.1,0-.15a.11.11,0,0,1,.08,0l.33.07.8.06h.58c1,0,1.56-.25,1.62-.74,0-.22-.52-.53-1.64-.93l-1.2-.41a.73.73,0,0,1-.33-.24.75.75,0,0,1-.21-.51.57.57,0,0,1,0-.18c.14-.42.8-.82,2-1.19a6.9,6.9,0,0,1,1.27-.3l.08.53a2.15,2.15,0,0,1-.76.33,4.69,4.69,0,0,0-.89.31.67.67,0,0,0-.44.58c0,.17.33.34,1,.48a5.34,5.34,0,0,1,.81.21,2,2,0,0,1,.81.53,1.3,1.3,0,0,1,.42.92A.77.77,0,0,1,50.81,44Z"/></g><g id="Grupo_4616" data-name="Grupo 4616"><path id="Trazado_10481" data-name="Trazado 10481" class="cls-2" d="M59.05,42.21a1.13,1.13,0,0,1-.19.53,2.54,2.54,0,0,1-1.81.81,3.47,3.47,0,0,1-.72,0c0,.14.1.91.26,2.31a.59.59,0,0,1-.39.18h-.37a27.9,27.9,0,0,1-.47-3.74,19.22,19.22,0,0,1,0-2.4,5.75,5.75,0,0,1,1.54-.24,2.45,2.45,0,0,1,2,.77,1.56,1.56,0,0,1,.26.9A3.31,3.31,0,0,1,59.05,42.21ZM58,40.8a2.43,2.43,0,0,0-1.34-.38,2.87,2.87,0,0,0-.57.11c0,.21,0,.44,0,.68s0,.7.13,1.46c.41,0,.68,0,.82,0a1.58,1.58,0,0,0,1-.48,1.22,1.22,0,0,0,.12-.82c0-.35-.09-.55-.19-.61Z"/></g><g id="Grupo_4617" data-name="Grupo 4617"><path id="Trazado_10482" data-name="Trazado 10482" class="cls-2" d="M61.2,44.92H61a1,1,0,0,1-1-.62,3.47,3.47,0,0,1-.22-.84.47.47,0,0,1,0-.17c0-.38.31-.82.94-1.31a1.81,1.81,0,0,1,1.18-.37,5,5,0,0,1,.67,0,4.89,4.89,0,0,0,.66.05,1.26,1.26,0,0,0-.66-1.17.85.85,0,0,0-.38-.09,1.36,1.36,0,0,0-.67.24l-.71.47a.32.32,0,0,1-.26-.17.56.56,0,0,1-.1-.29.33.33,0,0,1,.06-.19,2.93,2.93,0,0,1,1.77-.85,1.43,1.43,0,0,1,1.4.91A5.93,5.93,0,0,1,64,42.14a9.16,9.16,0,0,0,.3,1.63A6.38,6.38,0,0,1,61.2,44.92Zm1.85-2.47a2.84,2.84,0,0,0-.87-.15,1.68,1.68,0,0,0-1.43.76.93.93,0,0,0-.17.49.51.51,0,0,0,.38.53,1.17,1.17,0,0,0,.37,0,14.69,14.69,0,0,0,1.48-.23,1.4,1.4,0,0,0,.58-.33l-.06-.6a.75.75,0,0,0-.28-.51Z"/></g><g id="Grupo_4618" data-name="Grupo 4618"><path id="Trazado_10483" data-name="Trazado 10483" class="cls-2" d="M69.94,40.73a1.41,1.41,0,0,0-.78-.34,2.14,2.14,0,0,0-1.12.1,3.13,3.13,0,0,0-1,.65,4.27,4.27,0,0,0-1,1.3,5.23,5.23,0,0,0,0,1c0,.19,0,.58.13,1.18,0,.31.06.54.08.71l-.64,0c0-.36-.07-.78-.14-1.25l-.21-1.54a18,18,0,0,1-.19-2.19h.2a.6.6,0,0,1,.28-.13.18.18,0,0,1,.17.06l.08,1a3.52,3.52,0,0,1,2.73-1.78,4.66,4.66,0,0,1,.83,0,1.7,1.7,0,0,1,.76.18,3,3,0,0,1,.06.5C70.16,40.55,70.08,40.72,69.94,40.73Z"/></g><g id="Grupo_4619" data-name="Grupo 4619"><path id="Trazado_10484" data-name="Trazado 10484" class="cls-2" d="M71.64,44.92h-.19a1,1,0,0,1-1-.62,4,4,0,0,1-.22-.84.91.91,0,0,1,0-.17c0-.38.31-.82.94-1.31a1.81,1.81,0,0,1,1.18-.37c.16,0,.37,0,.66,0a5,5,0,0,0,.67.05A1.27,1.27,0,0,0,73,40.54a.82.82,0,0,0-.38-.09,1.36,1.36,0,0,0-.67.24l-.7.47A.32.32,0,0,1,71,41a.57.57,0,0,1-.11-.29.33.33,0,0,1,.08-.19,2.88,2.88,0,0,1,1.76-.85,1.4,1.4,0,0,1,1.39.91,5.24,5.24,0,0,1,.33,1.57,11.39,11.39,0,0,0,.3,1.63A6.41,6.41,0,0,1,71.64,44.92Zm1.85-2.47a3.17,3.17,0,0,0-.86-.15,1.7,1.7,0,0,0-1.44.76.79.79,0,0,0-.17.49.5.5,0,0,0,.38.53,1.17,1.17,0,0,0,.37,0,14.69,14.69,0,0,0,1.48-.23,1.4,1.4,0,0,0,.58-.33l-.06-.6A.75.75,0,0,0,73.49,42.45Z"/></g><g id="Grupo_4620" data-name="Grupo 4620"><path id="Trazado_10485" data-name="Trazado 10485" class="cls-2" d="M84.12,39.9c.07,0,.1.12.1.28,0,.33-.1.49-.3.49l-2,.35c0,.13,0,.3,0,.5,0,.47,0,.76,0,.89a2.34,2.34,0,0,0,.61,1.76.39.39,0,0,0,.28.11,3.07,3.07,0,0,0,.61-.18,1.25,1.25,0,0,1,.42-.08h.13a1.76,1.76,0,0,1,.13.5,1.86,1.86,0,0,1-1.53.52.94.94,0,0,1-.6-.26,3.46,3.46,0,0,1-.8-2.37c0-.35,0-.79,0-1.28a9,9,0,0,0-1.16.19,5,5,0,0,0-1.1.42,1.43,1.43,0,0,1-.17-.38L78.53,41a1.67,1.67,0,0,1,.76-.36c.17,0,.5-.1,1-.16a5.43,5.43,0,0,0,1-.19c.09-.33.15-.61.2-.86a8.1,8.1,0,0,0,.18-1c.06-.12.19-.17.39-.17a.81.81,0,0,1,.31.06,5.42,5.42,0,0,1-.21,1A2.31,2.31,0,0,0,82,40a.82.82,0,0,0,0,.22,10.81,10.81,0,0,0,1.5-.2C83.71,39.94,83.91,39.91,84.12,39.9Z"/></g><g id="Grupo_4621" data-name="Grupo 4621"><path id="Trazado_10486" data-name="Trazado 10486" class="cls-2" d="M91,43.37a2,2,0,0,1-2.25,1.56,6.69,6.69,0,0,1-1.94-.22,2.31,2.31,0,0,1-1.37-1A3,3,0,0,1,84.92,42a2.19,2.19,0,0,1,.38-1.24,2.69,2.69,0,0,1,2.26-1.31,5,5,0,0,1,1.9.48A2.46,2.46,0,0,1,90.64,41a3.12,3.12,0,0,1,.4,1.58A3.46,3.46,0,0,1,91,43.37Zm-.71-.23a1.16,1.16,0,0,0,.11-.52,1.9,1.9,0,0,0-.38-1.1,2.71,2.71,0,0,0-.76-.75,3.24,3.24,0,0,0-1.7-.53,1.38,1.38,0,0,0-1.46.95,3.92,3.92,0,0,0-.28,1.17,1.78,1.78,0,0,0,.11.61,1.36,1.36,0,0,0,1.12.85l.43.06.16,0q.94.12,1.11.12A1.63,1.63,0,0,0,90.24,43.14Z"/></g><g id="Grupo_4622" data-name="Grupo 4622"><path id="Trazado_10487" data-name="Trazado 10487" class="cls-2" d="M95.76,44.88a1.56,1.56,0,0,0-.66.28v-.64a3.28,3.28,0,0,1-.8.22l-1.07.13a1.35,1.35,0,0,1-1.2-.7,2.65,2.65,0,0,1-.38-1.43,2.35,2.35,0,0,1,1.07-2.12,3.9,3.9,0,0,1,2-.55,13.2,13.2,0,0,1-.15-2,.28.28,0,0,1,.24-.1.63.63,0,0,1,.5.25c0,.06.1,1,.27,2.75.11,1.1.16,2,.16,2.76C95.79,44.14,95.78,44.51,95.76,44.88ZM95,41.82a2.69,2.69,0,0,0-.14-.74,2.71,2.71,0,0,0-2,.43,1,1,0,0,0-.38.6,3.32,3.32,0,0,0-.1.77,1,1,0,0,0,.45.9.93.93,0,0,0,.52.22A2.29,2.29,0,0,0,95,43.36c0-.49,0-1,0-1.54Z"/></g><g id="Grupo_4623" data-name="Grupo 4623"><path id="Trazado_10488" data-name="Trazado 10488" class="cls-2" d="M102.74,43.37a2,2,0,0,1-2.24,1.56,6.75,6.75,0,0,1-2-.22,2.36,2.36,0,0,1-1.38-1A3.1,3.1,0,0,1,96.71,42a2,2,0,0,1,.38-1.24,2.71,2.71,0,0,1,2.27-1.31,5,5,0,0,1,1.9.48A2.48,2.48,0,0,1,102.43,41a3.24,3.24,0,0,1,.39,1.58A4.13,4.13,0,0,1,102.74,43.37Zm-.72-.23a1.17,1.17,0,0,0,.12-.52,1.9,1.9,0,0,0-.38-1.1,2.71,2.71,0,0,0-.76-.75,3.25,3.25,0,0,0-1.71-.53,1.37,1.37,0,0,0-1.45.95,3.92,3.92,0,0,0-.28,1.17,1.78,1.78,0,0,0,.11.61,1.37,1.37,0,0,0,1.13.85l.42.06.16,0c.64.08,1,.12,1.12.12a1.61,1.61,0,0,0,1.52-.88Z"/></g><g id="Grupo_4624" data-name="Grupo 4624"><path id="Trazado_10489" data-name="Trazado 10489" class="cls-2" d="M107.78,44a1.84,1.84,0,0,1-1.58.88,7,7,0,0,1-1,0h-1.32a.86.86,0,0,1-.35-.67s0-.08,0-.15a.11.11,0,0,1,.08,0l.33.07.81.06h.57c1,0,1.56-.25,1.62-.74,0-.22-.53-.53-1.64-.93l-1.2-.41a.87.87,0,0,1-.54-.75l0-.18c.14-.42.81-.82,2-1.19a7.2,7.2,0,0,1,1.28-.3l.07.53a2,2,0,0,1-.75.33,4.79,4.79,0,0,0-.9.31.68.68,0,0,0-.43.58c0,.17.32.34,1,.48a5.93,5.93,0,0,1,.83.21,1.88,1.88,0,0,1,.8.53,1.33,1.33,0,0,1,.43.92A.9.9,0,0,1,107.78,44Z"/></g></g><g id="Grupo_4627" data-name="Grupo 4627"><path id="Trazado_10490" data-name="Trazado 10490" class="cls-5" d="M214.06,26.58a3.25,3.25,0,1,0,3.16,3.33v-.08A3.21,3.21,0,0,0,214.06,26.58Zm0,6.08a2.83,2.83,0,1,1,2.76-2.91v.08A2.81,2.81,0,0,1,214.06,32.66Z"/><g id="Grupo_4626" data-name="Grupo 4626"><path id="Trazado_10491" data-name="Trazado 10491" class="cls-5" d="M212.63,31.72V27.94h1.63a2.09,2.09,0,0,1,.75.1.85.85,0,0,1,.41.36,1,1,0,0,1,.15.57.92.92,0,0,1-.25.67,1.29,1.29,0,0,1-.78.36,1.27,1.27,0,0,1,.29.18,2.74,2.74,0,0,1,.4.5l.64,1h-.61l-.48-.79c-.15-.22-.27-.4-.36-.51a1,1,0,0,0-.25-.26.74.74,0,0,0-.22-.1l-.27,0h-.56v1.68Zm.49-2.12h1a1.54,1.54,0,0,0,.52-.06.61.61,0,0,0,.38-.57.53.53,0,0,0-.19-.44.85.85,0,0,0-.6-.17h-1.16Z"/></g></g><path id="Rectángulo_2975" data-name="Rectángulo 2975" class="cls-7" d="M115,22.81h0a1.66,1.66,0,0,1,1.66,1.66v7.19A1.66,1.66,0,0,1,115,33.32h0a1.66,1.66,0,0,1-1.66-1.66V24.47A1.66,1.66,0,0,1,115,22.81Z"/><path id="Rectángulo_2976" data-name="Rectángulo 2976" class="cls-7" d="M88.4,22.81h0a1.66,1.66,0,0,1,1.66,1.66v7.19a1.66,1.66,0,0,1-1.66,1.66h0a1.66,1.66,0,0,1-1.66-1.66V24.47A1.66,1.66,0,0,1,88.4,22.81Z"/></g></g></svg>